# Blender v2.82 (sub 7) OBJ File: ''
# www.blender.org
mtllib untitled.mtl
o eggSunnysideUp
v -0.629565 0.073887 1.534464
v -0.029504 0.077883 1.473297
v -0.014797 0.074140 0.760400
v -0.771694 0.067507 0.814936
v 0.555132 0.072786 1.258364
v 1.041036 0.051852 1.026149
v 1.338334 0.072562 0.584710
v 0.743838 0.065944 0.634301
v 0.626199 0.072651 -1.525333
v 0.735849 0.064602 -0.729583
v 1.261942 0.071316 -0.537919
v 1.064634 0.051880 -1.142830
v -0.433686 0.073803 -1.401907
v -0.578381 0.066137 -0.607511
v 0.048710 0.072641 -0.827455
v 0.026591 0.077901 -1.621779
v -0.433609 0.001380 -1.401844
v 0.026591 0.001380 -1.621779
v 0.048723 -0.019305 -0.827446
v -0.578381 -0.019305 -0.607511
v 0.626199 0.001064 -1.525333
v 1.064634 -0.005133 -1.142830
v 1.261942 -0.000871 -0.537919
v 0.735849 -0.019305 -0.729583
v 0.743838 -0.019305 0.634301
v 1.338334 -0.000614 0.584710
v 1.041036 -0.005161 1.026149
v 0.555132 0.001266 1.258364
v -0.771694 -0.019305 0.814937
v -0.014797 -0.019305 0.760400
v -0.029504 0.001478 1.473297
v -0.629565 0.001554 1.534464
v -1.424484 0.002181 1.436829
v -1.424484 0.046290 1.436829
v -1.721473 0.046538 0.829104
v -1.721473 0.002429 0.829104
v -0.765172 0.046538 1.872342
v -0.765172 0.002429 1.872342
v -0.022688 0.002429 1.880691
v -0.022688 0.046538 1.880691
v 0.705409 0.046538 1.575511
v 0.705409 0.002429 1.575511
v 1.288508 0.002146 1.278955
v 1.288618 0.046254 1.278982
v 1.675674 0.002429 0.739948
v 1.675675 0.046538 0.739954
v -1.099837 0.046290 -1.177937
v -1.099837 0.002181 -1.177937
v -1.365097 0.002429 -0.512542
v -1.365308 0.046538 -0.512586
v -0.614993 0.002429 -1.757401
v -0.614993 0.046538 -1.757401
v 0.004168 0.046538 -2.005948
v 0.004168 0.002429 -2.005948
v 0.773528 0.002429 -1.846025
v 0.773528 0.046538 -1.846025
v 1.310574 0.046254 -1.372321
v 1.310574 0.002146 -1.372321
v 1.593670 0.046538 -0.676095
v 1.593670 0.002429 -0.676095
v -0.870224 -0.004954 -0.960946
v -1.009428 -0.000661 -0.363490
v -1.319906 -0.000406 0.711166
v -1.180768 -0.004978 1.229340
v -1.180768 0.052034 1.229340
v -1.319906 0.072769 0.711166
v -1.009428 0.071525 -0.363490
v -0.870263 0.052058 -0.960954
v 0.017456 0.080659 0.003907
v 0.804079 0.071509 0.021296
v 1.357324 0.077257 0.034808
v 1.803599 0.046538 0.022998
v 1.803493 0.002429 0.022971
v 1.357324 -0.000366 0.034808
v 0.804079 -0.019305 0.021296
v 0.017456 -0.019305 0.003907
v -0.617349 -0.019305 0.140805
v -1.142646 -0.000130 0.214763
v -1.572642 0.002429 0.177386
v -1.572642 0.046538 0.177386
v -1.142646 0.077488 0.214763
v -0.617303 0.073133 0.140842
v 0.579749 0.000000 -0.579749
v 0.000000 0.000000 -0.819889
v 0.000000 0.199639 -0.757478
v 0.535618 0.199639 -0.535618
v -0.579749 0.000000 -0.579749
v -0.535618 0.199639 -0.535618
v -0.819889 0.000000 0.000000
v -0.757478 0.199639 0.000000
v -0.579749 -0.000000 0.579749
v -0.535618 0.199639 0.535618
v 0.000000 -0.000000 0.819889
v 0.000000 0.199639 0.757479
v 0.579749 -0.000000 0.579749
v 0.535618 0.199639 0.535618
v 0.819889 0.000000 0.000000
v 0.757479 0.199639 0.000000
v 0.000000 0.368885 -0.579749
v 0.409944 0.368885 -0.409944
v -0.409944 0.368885 -0.409944
v -0.579749 0.368885 0.000000
v -0.409944 0.368885 0.409944
v 0.000000 0.368885 0.579749
v 0.409944 0.368885 0.409944
v 0.579749 0.368885 0.000000
v 0.000000 0.481971 -0.313758
v 0.221860 0.481971 -0.221860
v -0.221860 0.481971 -0.221860
v -0.313758 0.481971 0.000000
v -0.221860 0.481971 0.221860
v 0.000000 0.481971 0.313758
v 0.221860 0.481971 0.221860
v 0.313758 0.481971 0.000000
v 0.000000 0.521682 0.000000
vt 0.458226 0.250000
vt 0.500000 0.250000
vt 0.500000 0.360273
vt 0.458226 0.360273
vt 0.531171 0.250000
vt 0.625000 0.250000
vt 0.625000 0.360273
vt 0.531171 0.360273
vt 0.531171 0.500000
vt 0.531171 0.390309
vt 0.625000 0.390309
vt 0.625000 0.500000
vt 0.458226 0.500000
vt 0.458226 0.390309
vt 0.500000 0.390309
vt 0.500000 0.500000
vt 0.458226 0.750000
vt 0.500000 0.750000
vt 0.500000 0.859691
vt 0.458226 0.859691
vt 0.531171 0.750000
vt 0.625000 0.750000
vt 0.625000 0.859691
vt 0.531171 0.859691
vt 0.531171 0.889727
vt 0.625000 0.889727
vt 0.625000 1.000000
vt 0.531171 1.000000
vt 0.458226 0.889727
vt 0.500000 0.889727
vt 0.500000 1.000000
vt 0.458226 1.000000
vt 0.375000 0.062506
vt 0.375000 0.187494
vt 0.264727 0.173201
vt 0.264727 0.076799
vt 0.458226 0.176706
vt 0.458226 0.073294
vt 0.500000 0.078708
vt 0.500000 0.171292
vt 0.531171 0.175332
vt 0.531171 0.074668
vt 0.625000 0.062506
vt 0.625000 0.187494
vt 0.735273 0.076799
vt 0.735273 0.173201
vt 0.125000 0.187494
vt 0.125000 0.062506
vt 0.234691 0.076724
vt 0.234691 0.173276
vt 0.458226 0.676706
vt 0.458226 0.573294
vt 0.500000 0.578708
vt 0.500000 0.671292
vt 0.531171 0.675332
vt 0.531171 0.574668
vt 0.625000 0.562506
vt 0.625000 0.687494
vt 0.875000 0.062506
vt 0.875000 0.187494
vt 0.765309 0.173276
vt 0.765309 0.076724
vt 0.458226 0.000000
vt 0.500000 0.000000
vt 0.531171 0.000000
vt 0.625000 0.000000
vt 0.735273 0.000000
vt 0.765309 0.000000
vt 0.875000 0.000000
vt 0.875000 0.250000
vt 0.765309 0.250000
vt 0.735273 0.250000
vt 0.125000 0.000000
vt 0.234691 0.000000
vt 0.264727 0.000000
vt 0.375000 0.000000
vt 0.375000 0.250000
vt 0.264727 0.250000
vt 0.234691 0.250000
vt 0.125000 0.250000
vt 0.375000 0.360273
vt 0.375000 0.889727
vt 0.375000 1.000000
vt 0.375000 0.750000
vt 0.375000 0.859691
vt 0.375000 0.687494
vt 0.375000 0.562506
vt 0.375000 0.500000
vt 0.375000 0.390309
vt 0.500000 0.375000
vt 0.531171 0.375000
vt 0.625000 0.375000
vt 0.750000 0.171292
vt 0.750000 0.250000
vt 0.750000 0.078708
vt 0.750000 0.000000
vt 0.625000 0.875000
vt 0.531171 0.875000
vt 0.500000 0.875000
vt 0.458226 0.875000
vt 0.375000 0.875000
vt 0.250000 0.000000
vt 0.250000 0.078708
vt 0.250000 0.171292
vt 0.250000 0.250000
vt 0.375000 0.375000
vt 0.458226 0.375000
vt 0.000000 0.500000
vt 0.125000 0.500000
vt 0.125000 0.625000
vt 0.000000 0.625000
vt 0.250000 0.500000
vt 0.250000 0.625000
vt 0.375000 0.500000
vt 0.375000 0.625000
vt 0.500000 0.500000
vt 0.500000 0.625000
vt 0.625000 0.500000
vt 0.625000 0.625000
vt 0.750000 0.500000
vt 0.750000 0.625000
vt 0.875000 0.500000
vt 0.875000 0.625000
vt 1.000000 0.500000
vt 1.000000 0.625000
vt 0.125000 0.750000
vt 0.000000 0.750000
vt 0.250000 0.750000
vt 0.375000 0.750000
vt 0.500000 0.750000
vt 0.625000 0.750000
vt 0.750000 0.750000
vt 0.875000 0.750000
vt 1.000000 0.750000
vt 0.125000 0.875000
vt 0.000000 0.875000
vt 0.250000 0.875000
vt 0.375000 0.875000
vt 0.500000 0.875000
vt 0.625000 0.875000
vt 0.750000 0.875000
vt 0.875000 0.875000
vt 1.000000 0.875000
vt 0.062500 1.000000
vt 0.187500 1.000000
vt 0.312500 1.000000
vt 0.437500 1.000000
vt 0.562500 1.000000
vt 0.687500 1.000000
vt 0.812500 1.000000
vt 0.937500 1.000000
vn -0.0084 0.9999 -0.0063
vn 0.0189 0.9996 0.0216
vn 0.0223 0.9997 -0.0130
vn -0.0067 0.9999 0.0076
vn -0.0109 -0.9996 -0.0269
vn 0.0225 -0.9996 -0.0164
vn 0.0173 -0.9996 0.0229
vn 0.0024 -0.9996 0.0288
vn -0.8985 0.0000 0.4391
vn -0.0112 0.0000 0.9999
vn 0.4533 -0.0008 0.8914
vn 0.8122 -0.0012 0.5833
vn -0.9289 -0.0024 -0.3704
vn -0.3725 0.0000 -0.9280
vn 0.6615 0.0000 -0.7499
vn 0.9263 0.0000 -0.3767
vn 0.0000 -1.0000 0.0025
vn 0.0008 -0.9999 0.0143
vn 0.0353 0.9989 0.0312
vn 0.0001 0.9969 0.0785
vn -0.0340 0.9970 -0.0697
vn 0.0443 0.9987 -0.0259
vn 0.0044 -0.9999 -0.0126
vn -0.0011 -1.0000 -0.0025
vn 0.0142 -0.9999 0.0050
vn 0.0166 -0.9999 -0.0026
vn 0.0348 0.9990 -0.0280
vn 0.0263 0.9989 0.0397
vn -0.0164 -0.9999 -0.0017
vn -0.0148 -0.9999 0.0014
vn -0.0336 0.9989 0.0316
vn -0.0356 0.9990 -0.0270
vn -0.0212 0.9996 0.0164
vn -0.0388 0.9987 0.0336
vn -0.5512 0.0000 0.8344
vn -0.0024 -0.9999 0.0131
vn -0.0176 -0.9997 0.0172
vn -0.0280 -0.9995 -0.0175
vn -0.0048 -0.9999 -0.0108
vn -0.7669 0.0000 -0.6417
vn -0.0488 0.9986 -0.0226
vn -0.0304 0.9994 -0.0147
vn 0.0082 0.9999 -0.0067
vn 0.0325 0.9969 0.0722
vn 0.3866 0.0000 0.9223
vn 0.0009 -1.0000 0.0027
vn 0.0080 -0.9995 0.0321
vn 0.0037 -0.9997 -0.0261
vn 0.0004 -1.0000 -0.0034
vn 0.2035 0.0000 -0.9791
vn 0.0184 0.9968 -0.0780
vn 0.0092 0.9999 0.0076
vn 0.0124 0.9999 -0.0097
vn -0.0099 0.9999 -0.0085
vn 0.0672 0.9975 -0.0208
vn 0.9578 -0.0011 -0.2875
vn 0.0076 -1.0000 -0.0014
vn 0.0354 -0.9994 -0.0040
vn 0.0000 -1.0000 -0.0000
vn -0.0412 -0.9991 -0.0049
vn -0.0069 -1.0000 -0.0014
vn -0.9576 -0.0024 -0.2879
vn -0.0657 0.9976 -0.0223
vn 0.0073 0.9999 -0.0088
vn -0.0140 0.9999 -0.0101
vn -0.0092 0.9999 0.0073
vn 0.0086 0.9999 0.0113
vn -0.0701 0.9974 -0.0158
vn -0.9749 -0.0000 -0.2226
vn -0.0067 -1.0000 -0.0021
vn -0.0352 -0.9993 -0.0102
vn 0.0328 -0.9995 0.0020
vn 0.0073 -1.0000 0.0007
vn 0.9845 -0.0013 0.1756
vn 0.0701 0.9975 0.0118
vn -0.0105 0.9999 0.0081
vn 0.0119 0.9999 0.0096
vn 0.3677 0.2775 -0.8876
vn -0.3677 0.2775 -0.8876
vn -0.8876 0.2775 -0.3677
vn -0.8876 0.2775 0.3677
vn -0.3677 0.2775 0.8876
vn 0.3677 0.2775 0.8876
vn 0.8876 0.2775 0.3677
vn 0.8876 0.2775 -0.3677
vn 0.2747 0.6963 -0.6631
vn -0.2747 0.6963 -0.6631
vn -0.6631 0.6963 -0.2747
vn -0.6631 0.6963 0.2747
vn -0.2747 0.6963 0.6631
vn 0.2747 0.6963 0.6631
vn 0.6631 0.6963 0.2747
vn 0.6631 0.6963 -0.2747
vn 0.1600 0.9084 -0.3862
vn -0.1600 0.9084 -0.3862
vn -0.3862 0.9084 -0.1600
vn -0.3862 0.9084 0.1600
vn -0.1600 0.9084 0.3862
vn 0.1600 0.9084 0.3862
vn 0.3862 0.9084 0.1600
vn 0.3862 0.9084 -0.1600
vn 0.0519 0.9907 -0.1254
vn -0.0519 0.9907 -0.1254
vn -0.1254 0.9907 -0.0519
vn -0.1254 0.9907 0.0519
vn -0.0519 0.9907 0.1254
vn 0.0519 0.9907 0.1254
vn 0.1254 0.9907 0.0519
vn 0.1254 0.9907 -0.0519
usemtl lambert2SG
s off
f 1/1/1 2/2/1 3/3/1 4/4/1
f 5/5/2 6/6/2 7/7/2 8/8/2
f 9/9/3 10/10/3 11/11/3 12/12/3
f 13/13/4 14/14/4 15/15/4 16/16/4
f 17/17/5 18/18/5 19/19/5 20/20/5
f 21/21/6 22/22/6 23/23/6 24/24/6
f 25/25/7 26/26/7 27/27/7 28/28/7
f 29/29/8 30/30/8 31/31/8 32/32/8
f 33/33/9 34/34/9 35/35/9 36/36/9
f 37/37/10 38/38/10 39/39/10 40/40/10
f 41/41/11 42/42/11 43/43/11 44/44/11
f 44/44/12 43/43/12 45/45/12 46/46/12
f 47/47/13 48/48/13 49/49/13 50/50/13
f 51/51/14 52/52/14 53/53/14 54/54/14
f 55/55/15 56/56/15 57/57/15 58/58/15
f 58/59/16 57/60/16 59/61/16 60/62/16
f 32/63/17 31/64/17 39/39/17 38/38/17
f 28/65/18 27/66/18 43/43/18 42/42/18
f 41/41/19 44/44/19 6/6/19 5/5/19
f 37/37/20 40/40/20 2/2/20 1/1/20
f 13/13/21 16/16/21 53/53/21 52/52/21
f 9/9/22 12/12/22 57/57/22 56/56/22
f 55/55/23 58/58/23 22/22/23 21/21/23
f 51/51/24 54/54/24 18/18/24 17/17/24
f 27/66/25 26/67/25 45/45/25 43/43/25
f 23/68/26 22/69/26 58/59/26 60/62/26
f 59/61/27 57/60/27 12/70/27 11/71/27
f 44/44/28 46/46/28 7/72/28 6/6/28
f 61/73/29 62/74/29 49/49/29 48/48/29
f 63/75/30 64/76/30 33/33/30 36/36/30
f 35/35/31 34/34/31 65/77/31 66/78/31
f 47/47/32 50/50/32 67/79/32 68/80/32
f 65/77/33 1/1/33 4/4/33 66/81/33
f 34/34/34 37/37/34 1/1/34 65/77/34
f 34/34/35 33/33/35 38/38/35 37/37/35
f 64/76/36 32/63/36 38/38/36 33/33/36
f 63/82/37 29/29/37 32/32/37 64/83/37
f 61/84/38 17/17/38 20/20/38 62/85/38
f 48/86/39 51/51/39 17/17/39 61/84/39
f 48/86/40 47/87/40 52/52/40 51/51/40
f 68/88/41 13/13/41 52/52/41 47/87/41
f 67/89/42 14/14/42 13/13/42 68/88/42
f 2/2/43 5/5/43 8/8/43 3/3/43
f 40/40/44 41/41/44 5/5/44 2/2/44
f 40/40/45 39/39/45 42/42/45 41/41/45
f 31/64/46 28/65/46 42/42/46 39/39/46
f 30/30/47 25/25/47 28/28/47 31/31/47
f 18/18/48 21/21/48 24/24/48 19/19/48
f 54/54/49 55/55/49 21/21/49 18/18/49
f 54/54/50 53/53/50 56/56/50 55/55/50
f 16/16/51 9/9/51 56/56/51 53/53/51
f 15/15/52 10/10/52 9/9/52 16/16/52
f 69/90/53 70/91/53 10/10/53 15/15/53
f 11/11/54 10/10/54 70/91/54 71/92/54
f 72/93/55 59/61/55 11/71/55 71/94/55
f 60/62/56 59/61/56 72/93/56 73/95/56
f 74/96/57 23/68/57 60/62/57 73/95/57
f 24/24/58 23/23/58 74/97/58 75/98/58
f 19/19/59 24/24/59 75/98/59 76/99/59
f 20/20/59 19/19/59 76/99/59 77/100/59
f 62/85/60 20/20/60 77/100/60 78/101/60
f 49/49/61 62/74/61 78/102/61 79/103/61
f 50/50/62 49/49/62 79/103/62 80/104/62
f 67/79/63 50/50/63 80/104/63 81/105/63
f 81/106/64 82/107/64 14/14/64 67/89/64
f 15/15/65 14/14/65 82/107/65 69/90/65
f 4/4/66 3/3/66 69/90/66 82/107/66
f 66/81/67 4/4/67 82/107/67 81/106/67
f 80/104/68 35/35/68 66/78/68 81/105/68
f 36/36/69 35/35/69 80/104/69 79/103/69
f 78/102/70 63/75/70 36/36/70 79/103/70
f 78/101/71 77/100/71 29/29/71 63/82/71
f 77/100/59 76/99/59 30/30/59 29/29/59
f 76/99/59 75/98/59 25/25/59 30/30/59
f 75/98/72 74/97/72 26/26/72 25/25/72
f 45/45/73 26/67/73 74/96/73 73/95/73
f 46/46/74 45/45/74 73/95/74 72/93/74
f 7/72/75 46/46/75 72/93/75 71/94/75
f 8/8/76 7/7/76 71/92/76 70/91/76
f 3/3/77 8/8/77 70/91/77 69/90/77
usemtl lambert3SG
f 83/108/78 84/109/78 85/110/78 86/111/78
f 84/109/79 87/112/79 88/113/79 85/110/79
f 87/112/80 89/114/80 90/115/80 88/113/80
f 89/114/81 91/116/81 92/117/81 90/115/81
f 91/116/82 93/118/82 94/119/82 92/117/82
f 93/118/83 95/120/83 96/121/83 94/119/83
f 95/120/84 97/122/84 98/123/84 96/121/84
f 97/122/85 83/124/85 86/125/85 98/123/85
f 86/111/86 85/110/86 99/126/86 100/127/86
f 85/110/87 88/113/87 101/128/87 99/126/87
f 88/113/88 90/115/88 102/129/88 101/128/88
f 90/115/89 92/117/89 103/130/89 102/129/89
f 92/117/90 94/119/90 104/131/90 103/130/90
f 94/119/91 96/121/91 105/132/91 104/131/91
f 96/121/92 98/123/92 106/133/92 105/132/92
f 98/123/93 86/125/93 100/134/93 106/133/93
f 100/127/94 99/126/94 107/135/94 108/136/94
f 99/126/95 101/128/95 109/137/95 107/135/95
f 101/128/96 102/129/96 110/138/96 109/137/96
f 102/129/97 103/130/97 111/139/97 110/138/97
f 103/130/98 104/131/98 112/140/98 111/139/98
f 104/131/99 105/132/99 113/141/99 112/140/99
f 105/132/100 106/133/100 114/142/100 113/141/100
f 106/133/101 100/134/101 108/143/101 114/142/101
f 108/136/102 107/135/102 115/144/102
f 107/135/103 109/137/103 115/145/103
f 109/137/104 110/138/104 115/146/104
f 110/138/105 111/139/105 115/147/105
f 111/139/106 112/140/106 115/148/106
f 112/140/107 113/141/107 115/149/107
f 113/141/108 114/142/108 115/150/108
f 114/142/109 108/143/109 115/151/109
